#!OML:ASF E:/inclinewalkrobotboard/Project1/Captureday1/Session1/subject1.ASF
:FULLY-SPECIFIED
:DEGREES
26
root 0 0 0 -0.45804148806092326 -3.0303559807589946 -0.14019995225192283
lowerback 11.236138356930311 0.6417940819889462 0.3868854665422752
upperback -2.0065764449141397 0.9330573123887838 0.467879807572494
thorax -8.457932155666331 0.4341462716065336 0.08413007966280955
lowerneck -11.27539401793003 -0.5717745559225113 1.4338681107711466
upperneck 18.849749156443927 -0.16331511920388397 -4.014521334936756
head 7.796611529299422 -0.27677054733382567 -1.612585869426026
rclavicle -5.380247563310856E-16 -6.322792326494974E-16
rhumerus 0.3807454770097909 1.5066853475060764 -59.669984578980504
rradius 54.17133081460544
rwrist 17.869979906322534
rhand -27.544413955763755 -24.8784155234804
rfingers 7.125019999999928
rthumb -1.1185062391080622 -55.002100323806204
lclavicle -4.798593419525357E-16 -7.005158422496551E-16
lhumerus -0.3132458531664586 -7.16014620283036 59.79718595210554
lradius 53.39717482721197
lwrist -11.644554696779908
lhand -37.5984900873769 -32.938867203196715
lfingers 7.125019999999925
lthumb -10.68690628449504 -3.3991590789297916
rfemur -21.391230594785917 -0.34611560358903803 19.538101713945675
rtibia 50.62290934105998
rfoot -22.786145781083498 -13.861384916344786
rtoes -12.244224690479864
lfemur -23.329120844821702 1.596661848732618 -18.122278567121207
ltibia 50.37232416714633
lfoot -26.24221566179655 -3.664057445886046
ltoes -16.907134131349547
27
root 0 0 0 -0.4630812791576908 -3.029989185831167 -0.1466408857309066
lowerback 11.23421167841671 0.6417454960428227 0.3890252124255874
upperback -2.00014747178634 0.9333030996836598 0.47067909003744224
thorax -8.449519095345241 0.4340914462437908 0.0859742915766401
lowerneck -11.289455197616764 -0.5783113338997293 1.4252134184783882
upperneck 18.850933058491734 -0.1725743175700618 -4.002792098110823
head 7.799434268324479 -0.2806243718880985 -1.6082230953593142
rclavicle -5.390287194924095E-16 -6.306920174773025E-16
rhumerus 0.27271530654916987 1.4357037741261998 -59.735104594073945
rradius 54.07176995428521
rwrist 17.819650480492903
rhand -27.50812633429506 -24.70550336462366
rfingers 7.125019999999928
rthumb -1.084421558477989 -54.829979004021276
lclavicle -4.827203630332915E-16 -6.989472060688978E-16
lhumerus -0.5403406281233654 -7.1053807406339935 59.95617711374605
lradius 53.2214725550549
lwrist -11.52647539361925
lhand -37.52273281993359 -32.54201361185413
lfingers 7.125019999999924
lthumb -10.614352841962162 -2.999565235718155
rfemur -21.347291613141802 -0.3201580160728774 19.57341040075954
rtibia 50.567408938675925
rfoot -22.7084863831165 -13.823491871084427
rtoes -12.16227879906987
lfemur -23.327299503741997 1.5959808808556855 -18.121897155706783
ltibia 50.36773584603074
lfoot -26.237749112543845 -3.663483889758112
ltoes -16.903496505153612
28
root 0 0 0 -0.4708512381613408 -3.02886764378539 -0.15583516466117375
lowerback 11.231274618272845 0.6413261622951582 0.39177888572580427
upperback -1.9903011910139674 0.9332281431504947 0.47500322773466197
thorax -8.436697546107517 0.43392670214357054 0.08912492427123192
lowerneck -11.310857358403798 -0.5879985295104805 1.4120294499556005
upperneck 18.852617421999526 -0.1864640032332685 -3.9850371582552064
head 7.803610550603395 -0.2864828635192125 -1.6015874725051662
rclavicle -5.404370587411363E-16 -6.295270355274725E-16
rhumerus 0.15680483375084364 1.3598583984415722 -59.80402247255388
rradius 53.96554563791137
rwrist 17.766247711513987
rhand -27.469633269309277 -24.521856870657828
rfingers 7.125019999999927
rthumb -1.0485259322752531 -54.64801930715499
lclavicle -4.859096210204232E-16 -6.980118405576856E-16
lhumerus -0.7825282243100631 -7.04707094226972 60.125639526578425
lradius 53.03632993682394
lwrist -11.400953755889601
lhand -37.44265583248501 -32.11869429462624
lfingers 7.125019999999923
lthumb -10.537280793359368 -2.575329043566697
rfemur -21.297761023015834 -0.29082271619417854 19.613238122930902
rtibia 50.50459431329213
rfoot -22.62069921501495 -13.780283726802764
rtoes -12.069230767609412
lfemur -23.309101128775527 1.5913067798068088 -18.12334695528907
ltibia 50.34309694424699
lfoot -26.2097135143488 -3.6621372688696137
ltoes -16.88505811103768
29
root 0 0 0 -0.4702761373508968 -3.029601693811556 -0.15588996689107948
lowerback 11.231462888721866 0.64176647571758 0.3921151761164715
upperback -1.9910351521483558 0.9337374035083092 0.4746236790817608
thorax -8.437499712086256 0.43403882686402917 0.08851271280066891
lowerneck -11.309527288310571 -0.5876945537232336 1.4129060655089631
upperneck 18.852631293276808 -0.18581344405693523 -3.985986620515842
head 7.8034555524219344 -0.2861109294292118 -1.6019995292927844
rclavicle -5.407066229024207E-16 -6.281508757431411E-16
rhumerus 0.09429004299052046 1.3184987175284686 -59.84258834608378
rradius 53.907427592678474
rwrist 17.736558537383445
rhand -27.448247254236232 -24.419980230732115
rfingers 7.125019999999927
rthumb -1.028160431418133 -54.54570898244587
lclavicle -4.87354594213815E-16 -6.964448662196493E-16
lhumerus -0.9118114158070973 -7.015766508556921 60.21621745274096
lradius 52.93397116275142
lwrist -11.333361531269905
lhand -37.39880972468975 -31.892871856731688
lfingers 7.125019999999922
lthumb -10.49565467879835 -2.3456719282448404
rfemur -21.284411326057164 -0.28324088749810894 19.623730045093588
rtibia 50.4887319663838
rfoot -22.59772040248174 -13.769391775143076
rtoes -12.045487343548668
lfemur -23.306706210152406 1.5905491898707473 -18.123061330719878
ltibia 50.33876346175302
lfoot -26.205583769426074 -3.661667746522239
ltoes -16.881309639966123
30
root 0 0 0 -0.47022745895600937 -3.029979982170923 -0.15615928339324991
lowerback 11.231489952204402 0.6420069803406732 0.3923598554740707
upperback -1.9911606233691148 0.9339856439756429 0.47451191514805185
thorax -8.437534446924221 0.43409510847959937 0.08823854428773292
lowerneck -11.30939262167077 -0.5878329063295586 1.4129921094771887
upperneck 18.852638542068846 -0.1858255546903571 -3.9859806531934945
head 7.803453168083162 -0.28605666050652345 -1.6020174833356275
rclavicle -5.412276455192889E-16 -6.273219002452656E-16
rhumerus 0.04143349821323916 1.2837194085137718 -59.874425190416915
rradius 53.85876983657391
rwrist 17.71193467725883
rhand -27.430486025894442 -24.335386699025463
rfingers 7.125019999999926
rthumb -1.0114654290726754 -54.46168021591011
lclavicle -4.885810875040481E-16 -6.957491901887536E-16
lhumerus -1.010457495285518 -6.991951138961809 60.28534073953664
lradius 52.857518611825796
lwrist -11.282056212155059
lhand -37.36584859187634 -31.720303464070703
lfingers 7.125019999999922
lthumb -10.464123439264924 -2.1719668832196746
rfemur -21.281752938673883 -0.28208071757685715 19.625598559460368
rtibia 50.48678045532181
rfoot -22.59382778897924 -13.767395314127253
rtoes -12.04129419214825
lfemur -23.2933399157486 1.5871612604997853 -18.124278858124764
ltibia 50.32106987648291
lfoot -26.18593868720034 -3.660665959744994
ltoes -16.868158396779382
